<svg width="159" height="159" viewBox="0 0 159 159" xmlns="http://www.w3.org/2000/svg">
<g clip-path="url(#clip0_37_106)">
<path d="M79.1623 156.26C121.688 156.26 156.161 121.787 156.161 79.2615C156.161 36.7354 121.688 2.26044 79.1623 2.26044C36.6366 2.26044 2.16342 36.7354 2.16342 79.2615C2.16342 121.787 36.6365 156.26 79.1623 156.26Z" fill="#0C0C4F" stroke="#69DDFF" stroke-width="4"/>
<path d="M61.8246 137.845C63.2154 138.457 64.6825 137.132 63.831 136.036C59.209 130.084 51.5735 119.985 58.5467 107.087C70.1753 85.5791 77.2513 74.4393 77.2513 74.4393C77.2513 74.4393 81.0149 87.4393 91.2174 98.9981C101.037 110.123 103.207 124.38 94.5423 136.036C93.7291 137.13 95.163 138.42 96.5447 137.835C107.27 133.296 122.504 123.924 123.862 105.805C124.362 100.268 123.611 92.5164 119.858 82.7347C115.033 70.3372 104.869 64.5796 101.437 62.0954C100.41 61.3522 98.8132 62.0109 98.8974 63.1373C99.8976 76.5141 98.0467 79.8814 94.5846 72.2313C93.2019 69.1757 92.3955 63.8907 92.3955 57.4547C92.3955 46.7398 88.6381 35.7098 80.3544 26.7467C78.2003 24.4159 76.7127 22.1256 73.8208 20.2683C72.7739 19.5957 71.2563 20.2717 71.3521 21.3654C71.9882 28.6292 70.3788 49.559 48.3042 74.4293C28.2891 97.4993 36.0449 115.217 38.797 120.016C44.0587 129.209 54.6569 134.692 61.8246 137.845Z" fill="#69DDFF"/>
<path d="M62.3292 137.845C63.47 138.458 64.6734 137.131 63.9749 136.032C60.1839 130.071 56.594 120.039 62.3136 107.12C71.8516 85.5761 77.6555 74.4178 77.6555 74.4178C77.6555 74.4178 80.7426 87.4394 89.1109 99.0175C97.1649 110.161 101.573 124.175 94.4663 135.85C93.7994 136.946 94.9755 138.238 96.1088 137.652C104.906 133.106 114.773 123.985 115.886 105.835C116.297 100.289 115.681 92.525 112.603 82.7269C108.645 70.3088 103.779 64.5143 100.964 62.0259C100.122 61.2814 98.8121 61.9412 98.8812 63.0695C99.7016 76.4687 94.7125 79.8689 91.8728 72.2061C90.7387 69.1454 90.0772 63.8516 90.0772 57.4048C90.0772 46.672 86.9953 35.6236 80.2008 26.6455C78.4339 24.3108 76.3665 22.1291 73.9945 20.2687C73.1357 19.595 71.8909 20.2722 71.9696 21.3677C72.4913 28.6436 72.0186 49.4959 53.9124 74.4078C37.4955 97.5163 43.857 115.264 46.1144 120.07C50.4302 129.279 56.4501 134.686 62.3292 137.845Z" fill="#FAFAFA"/>
</g>
<defs>
<clipPath id="clip0_37_106">
<rect width="159" height="159" fill="white"/>
</clipPath>
</defs>
</svg>
